<svg width="37" height="39" viewBox="0 0 37 39" fill="none" xmlns="http://www.w3.org/2000/svg">
<g clip-path="url(#clip0_14_1070)">
<path d="M22.8103 19.7192C22.8103 17.3016 20.9931 14.6017 18.5568 14.6017C16.1205 14.6017 14.5811 16.4016 14.5811 18.8192C14.5811 21.2368 16.2778 24.3683 18.7141 24.3683C21.1504 24.3683 22.8103 22.1334 22.8103 19.7192Z" stroke="#D1B263" stroke-width="2" stroke-miterlimit="10"/>
<path d="M17.1279 14.8342C17.1279 14.8342 9.43069 2.919 13.3194 1.1988C17.2082 -0.521396 25.1329 0.494782 25.4074 2.68322C25.6818 4.87166 20.615 15.3024 20.615 15.3024" stroke="#D1B263" stroke-width="2" stroke-miterlimit="10"/>
<path d="M21.395 15.7209C21.395 15.7209 28.4061 3.39055 31.7695 6.00406C35.1328 8.61756 37.9205 16.033 36.1033 17.2949C34.2861 18.5569 22.6266 18.9919 22.6266 18.9919" stroke="#D1B263" stroke-width="2" stroke-miterlimit="10"/>
<path d="M21.4351 22.9304C21.4351 22.9304 27.3853 35.7987 30.9494 33.4708C34.5136 31.1429 37.9204 23.9832 36.2136 22.5718C34.5069 21.1604 22.9276 19.769 22.9276 19.769" stroke="#D1B263" stroke-width="2" stroke-miterlimit="10"/>
<path d="M17.0177 24.106C17.0177 24.106 8.79511 35.6791 12.6136 37.5654C16.432 39.4516 24.3836 38.7808 24.7651 36.6057C25.1466 34.4305 20.5249 23.7972 20.5249 23.7972" stroke="#D1B263" stroke-width="2" stroke-miterlimit="10"/>
<path d="M14.5845 20.0711C14.5845 20.0711 0.699504 16.8068 0.358151 21.0275C0.0167981 25.2483 3.60435 32.3184 5.77629 31.8502C7.94824 31.3819 16.1775 23.1828 16.1775 23.1828" stroke="#D1B263" stroke-width="2" stroke-miterlimit="10"/>
<path d="M16.0337 15.422C16.0337 15.422 10.4617 2.38767 6.83395 4.61264C3.20623 6.8376 -0.41144 13.8811 1.25182 15.3423C2.91508 16.8035 14.4508 18.527 14.4508 18.527" stroke="#D1B263" stroke-width="2" stroke-miterlimit="10"/>
</g>
<defs>
<clipPath id="clip0_14_1070">
<rect width="37" height="39" fill="white" transform="matrix(1 0 0 -1 0 39)"/>
</clipPath>
</defs>
</svg>
