<svg width="25" height="27" viewBox="0 0 25 27" fill="none" xmlns="http://www.w3.org/2000/svg">
<path d="M14.971 13.4282C14.971 11.8785 13.8414 10.1478 12.3269 10.1478C10.8124 10.1478 9.85547 11.3016 9.85547 12.8513C9.85547 14.401 10.9102 16.4084 12.4247 16.4084C13.9391 16.4084 14.971 14.9758 14.971 13.4282Z" stroke="#D1B263" stroke-width="2" stroke-miterlimit="10"/>
<path d="M11.4386 10.2968C11.4386 10.2968 6.65391 2.65883 9.07124 1.55614C11.4886 0.453445 16.4148 1.10484 16.5854 2.50769C16.7559 3.91053 13.6063 10.5969 13.6063 10.5969" stroke="#D1B263" stroke-width="2" stroke-miterlimit="10"/>
<path d="M14.0908 10.8652C14.0908 10.8652 18.4491 2.96112 20.5398 4.63645C22.6305 6.31177 24.3634 11.0653 23.2338 11.8742C22.1042 12.6831 14.8564 12.962 14.8564 12.962" stroke="#D1B263" stroke-width="2" stroke-miterlimit="10"/>
<path d="M14.1157 15.4867C14.1157 15.4867 17.8145 23.7355 20.0301 22.2433C22.2456 20.751 24.3634 16.1615 23.3024 15.2567C22.2414 14.352 15.0435 13.4601 15.0435 13.4601" stroke="#D1B263" stroke-width="2" stroke-miterlimit="10"/>
<path d="M11.3699 16.2403C11.3699 16.2403 6.25856 23.6589 8.63221 24.8681C11.0058 26.0772 15.9487 25.6472 16.1858 24.2529C16.423 22.8585 13.5501 16.0423 13.5501 16.0423" stroke="#D1B263" stroke-width="2" stroke-miterlimit="10"/>
<path d="M9.85755 13.6538C9.85755 13.6538 1.2263 11.5613 1.01411 14.2669C0.80192 16.9726 3.03202 21.5047 4.38215 21.2045C5.73227 20.9043 10.8478 15.6485 10.8478 15.6485" stroke="#D1B263" stroke-width="2" stroke-miterlimit="10"/>
<path d="M10.7581 10.6736C10.7581 10.6736 7.29441 2.31823 5.03934 3.74449C2.78428 5.17075 0.535454 9.68582 1.56937 10.6225C2.60329 11.5591 9.77415 12.6639 9.77415 12.6639" stroke="#D1B263" stroke-width="2" stroke-miterlimit="10"/>
</svg>
