<svg width="324" height="127" viewBox="0 0 324 127" fill="none" xmlns="http://www.w3.org/2000/svg">
<path d="M311.134 83.5249C305.39 88.598 300.565 90.5341 298.238 88.2548C295.911 85.9756 297.859 81.2089 302.721 75.278C307.583 69.3472 310.999 70.597 313.314 72.8272C315.629 75.0574 317.086 78.2802 311.134 83.5249Z" stroke="#D0AB59" stroke-width="2" stroke-miterlimit="10"/>
<path d="M289.849 114.662C288.698 107.077 289.678 101.967 292.85 101.183C296.022 100.398 298.973 104.687 301.337 111.991C303.7 119.294 300.786 121.487 297.663 122.21C294.54 122.933 291.037 122.504 289.849 114.662Z" stroke="#D0AB59" stroke-width="2" stroke-miterlimit="10"/>
<path d="M312.518 99.8224C304.043 98.8176 298.863 96.4526 299.046 93.193C299.23 89.9335 304.631 88.2915 313.155 88.0464C321.678 87.8013 323.148 91.2079 322.989 94.4674C322.83 97.727 321.274 100.852 312.518 99.8224Z" stroke="#D0AB59" stroke-width="2" stroke-miterlimit="10"/>
<path d="M304.974 111.378C298.495 105.802 295.446 101.097 297.209 98.7931C298.973 96.4894 304.239 98.3274 311.367 103.033C318.494 107.738 318.004 111.084 316.265 113.387C314.526 115.691 311.648 117.149 304.974 111.378Z" stroke="#D0AB59" stroke-width="2" stroke-miterlimit="10"/>
<path d="M256.758 115.789C253.084 113.339 251.333 110.888 252.239 109.368C253.145 107.849 256.06 108.29 260.04 110.202C264.021 112.113 263.837 114.111 262.931 115.655C262.024 117.199 260.53 118.363 256.758 115.789Z" stroke="#D0AB59" stroke-width="2" stroke-miterlimit="10"/>
<path d="M240.397 119.49C241.352 115.177 242.846 112.628 244.659 112.897C246.471 113.167 247.108 116.034 246.802 120.446C246.496 124.857 244.597 125.433 242.822 125.176C241.046 124.918 239.417 123.95 240.397 119.49Z" stroke="#D0AB59" stroke-width="2" stroke-miterlimit="10"/>
<path d="M150.235 68.7099C146.831 66.7493 145.08 64.7396 145.79 63.2692C146.5 61.7987 149.133 62.0438 152.807 63.3795C156.481 64.7151 156.481 66.6145 155.734 68.0849C154.987 69.5554 153.763 70.7318 150.235 68.7099Z" stroke="#D0AB59" stroke-width="2" stroke-miterlimit="10"/>
<path d="M249.117 119.711C247.512 115.593 247.378 112.628 248.994 111.856C250.611 111.084 252.754 113.081 254.971 116.953C257.187 120.826 255.901 122.333 254.285 123.08C252.668 123.828 250.733 123.975 249.117 119.711Z" stroke="#D0AB59" stroke-width="2" stroke-miterlimit="10"/>
<path d="M291.466 101.035C287.302 101.035 285.575 97.5186 283.922 94.0263C281.129 88.1812 286.371 86.5514 291.466 87.0171C295.63 87.3969 299.022 90.154 299.022 94.0263C298.933 95.9527 298.091 97.767 296.677 99.0781C295.264 100.389 293.392 101.092 291.466 101.035Z" stroke="#D0AB59" stroke-width="2" stroke-miterlimit="10"/>
<path d="M244.83 111.231C242.907 109.895 243.372 107.555 243.85 105.202C244.658 101.281 247.646 102.102 249.839 103.977C250.729 104.675 251.322 105.684 251.502 106.802C251.681 107.919 251.433 109.063 250.806 110.005C250.174 110.959 249.191 111.623 248.071 111.853C246.951 112.083 245.785 111.859 244.83 111.231Z" stroke="#D0AB59" stroke-width="2" stroke-miterlimit="10"/>
<path d="M237.421 29.2525C237.772 28.2673 237.855 27.2059 237.659 26.1782C237.463 25.1505 236.996 24.1939 236.306 23.4074C236.131 23.1634 235.911 22.9554 235.657 22.7947C236.514 21.5694 238.266 20.4052 241.278 19.3882C246.814 17.5133 248.516 20.1479 249.153 22.954C249.79 25.7602 249.521 28.7379 243.581 29.5589C241.537 30.0053 239.411 29.8996 237.421 29.2525Z" stroke="#D0AB59" stroke-width="2" stroke-miterlimit="10"/>
<path d="M237.421 29.2526L237.421 29.4241C236.662 31.6298 233.747 30.7843 231.371 30.2329C227.489 29.3261 227.979 25.8092 230.306 24.2285C231.971 23.0889 234.212 21.7777 235.706 22.7948" stroke="#D0AB59" stroke-width="2" stroke-miterlimit="10"/>
<path d="M159.519 103.572C159.506 104.62 159.213 105.646 158.67 106.542C158.128 107.439 157.355 108.173 156.433 108.67C156.183 108.838 155.905 108.958 155.612 109.025C155.98 110.496 157.241 112.162 159.715 114.16C164.258 117.836 166.769 115.949 168.288 113.535C169.806 111.121 170.627 108.241 165.336 105.41C163.59 104.3 161.585 103.667 159.519 103.572Z" stroke="#D0AB59" stroke-width="2" stroke-miterlimit="10"/>
<path d="M155.624 109.025C153.898 109.405 152.22 107.457 151.056 105.802C149.415 103.523 150.175 100.043 154.13 100.546C156.506 100.827 159.58 101.06 159.531 103.388L159.531 103.572" stroke="#D0AB59" stroke-width="2" stroke-miterlimit="10"/>
<path d="M98.518 112.37C99.1782 112.244 99.796 111.954 100.314 111.525C100.832 111.097 101.234 110.545 101.482 109.92C101.563 109.75 101.613 109.568 101.629 109.38C103.03 109.603 104.321 110.279 105.303 111.304C108.046 113.669 107.078 115.434 105.695 116.671C104.311 117.909 102.547 118.73 100.269 115.801C99.3766 114.844 98.77 113.655 98.518 112.37Z" stroke="#D0AB59" stroke-width="2" stroke-miterlimit="10"/>
<path d="M98.5174 112.37C98.4807 112.372 98.4439 112.372 98.4072 112.37C96.9375 112.664 96.5089 110.802 96.1048 109.38C95.4312 107.003 97.5621 106.133 99.1665 106.93C100.318 107.456 101.702 108.253 101.616 109.38" stroke="#D0AB59" stroke-width="2" stroke-miterlimit="10"/>
<path d="M210.649 10.7124C207.049 13.2857 205.31 15.6997 206.24 17.2192C207.171 18.7386 210.086 18.224 214.029 16.2389C217.973 14.2537 217.703 12.2441 216.822 10.7246C215.94 9.20515 214.36 8.06554 210.649 10.7124Z" stroke="#D0AB59" stroke-width="2" stroke-miterlimit="10"/>
<path d="M194.214 7.31813C195.243 11.6192 196.835 14.1313 198.598 13.8372C200.362 13.5431 200.962 10.6512 200.594 6.23979C200.227 1.82841 198.292 1.33825 196.541 1.59558C194.789 1.85291 193.173 2.86998 194.214 7.31813Z" stroke="#D0AB59" stroke-width="2" stroke-miterlimit="10"/>
<path d="M202.97 6.92605C201.439 11.0801 201.366 14.0455 202.97 14.7808C204.575 15.516 206.644 13.4451 208.837 9.58513C211.029 5.72517 209.669 4.19344 208.041 3.45821C206.412 2.72298 204.513 2.6372 202.97 6.92605Z" stroke="#D0AB59" stroke-width="2" stroke-miterlimit="10"/>
<path d="M198.794 15.4914C196.908 16.8638 197.411 19.1675 197.937 21.5448C198.819 25.4415 201.795 24.5592 203.938 22.6476C204.819 21.9363 205.397 20.9173 205.556 19.796C205.715 18.6748 205.443 17.535 204.795 16.6065C204.146 15.664 203.15 15.0173 202.025 14.8083C200.9 14.5993 199.739 14.8449 198.794 15.4914Z" stroke="#D0AB59" stroke-width="2" stroke-miterlimit="10"/>
<path d="M140.647 49.312C140.904 53.7234 140.12 56.5908 138.344 56.8237C136.568 57.0565 135.16 54.4587 134.229 50.1453C133.299 45.832 134.989 44.7414 136.764 44.5085C138.54 44.2757 140.377 44.7291 140.647 49.312Z" stroke="#D0AB59" stroke-width="2" stroke-miterlimit="10"/>
<path d="M153.604 59.9484C149.611 61.8478 146.66 62.1909 145.79 60.6347C144.921 59.0784 146.782 56.787 150.432 54.3117C154.082 51.8364 155.723 52.9883 156.555 54.5445C157.388 56.1007 157.731 57.9878 153.604 59.9484Z" stroke="#D0AB59" stroke-width="2" stroke-miterlimit="10"/>
<path d="M148.435 52.9148C146.17 56.7135 143.904 58.6373 142.312 57.8163C140.72 56.9953 141.014 54.0666 142.679 49.9738C144.345 45.8811 146.353 45.9423 147.945 46.7511C149.538 47.5598 150.774 48.9935 148.435 52.9148Z" stroke="#D0AB59" stroke-width="2" stroke-miterlimit="10"/>
<path d="M144.369 61.5659C144.492 63.8942 142.336 64.9725 140.205 66.0264C136.617 67.7909 135.429 64.9235 135.564 62.0561C135.57 60.9217 136.003 59.8312 136.777 59.0022C137.551 58.1733 138.609 57.6667 139.74 57.5834C140.881 57.499 142.009 57.8708 142.877 58.6173C143.745 59.3639 144.281 60.4242 144.369 61.5659Z" stroke="#D0AB59" stroke-width="2" stroke-miterlimit="10"/>
<path d="M93.6306 57.8162C95.3452 61.3575 97.2312 63.2324 98.7375 62.6319C100.244 62.0315 100.256 59.3847 99.1172 55.6227C97.9782 51.8608 96.1412 51.7628 94.6348 52.3755C93.1285 52.9882 91.8548 54.2135 93.6306 57.8162Z" stroke="#D0AB59" stroke-width="2" stroke-miterlimit="10"/>
<path d="M112.344 68.7223C107.96 68.1586 104.996 68.7223 104.702 70.4991C104.408 72.2759 106.833 73.8444 111.07 75.082C115.308 76.3197 116.52 74.6899 116.863 72.9376C117.206 71.1853 116.863 69.3104 112.344 68.7223Z" stroke="#D0AB59" stroke-width="2" stroke-miterlimit="10"/>
<path d="M102.546 55.0592C100.379 58.9069 99.8275 61.8356 101.322 62.8159C102.816 63.7962 105.228 62.0929 107.947 58.6128C110.666 55.1327 109.625 53.4172 108.131 52.4859C106.637 51.5546 104.824 51.0767 102.546 55.0592Z" stroke="#D0AB59" stroke-width="2" stroke-miterlimit="10"/>
<path d="M109.246 60.7081C105.315 62.7055 103.233 64.8377 103.931 66.4797C104.629 68.1217 107.605 68.0359 111.769 66.6635C115.933 65.2911 116.055 63.2814 115.357 61.6272C114.659 59.9729 113.312 58.6372 109.246 60.7081Z" stroke="#D0AB59" stroke-width="2" stroke-miterlimit="10"/>
<path d="M100.391 64.176C98.0766 63.8819 96.8519 65.965 95.664 68.0237C93.6555 71.4793 96.4355 72.8639 99.338 72.9252C100.469 73.001 101.588 72.6449 102.467 71.9286C103.347 71.2124 103.922 70.1892 104.078 69.0652C104.159 68.5017 104.128 67.9277 103.986 67.3762C103.844 66.8248 103.595 66.3069 103.252 65.8524C102.909 65.3978 102.48 65.0157 101.989 64.728C101.498 64.4402 100.955 64.2526 100.391 64.176Z" stroke="#D0AB59" stroke-width="2" stroke-miterlimit="10"/>
<path d="M283.138 89.7497C283.138 89.7497 240.935 49.312 168.006 76.638C104.604 100.362 74.5258 112.174 -0.130596 58.8454" stroke="#D0AB59" stroke-width="2" stroke-miterlimit="10" stroke-linecap="round"/>
<path d="M245.773 102.42C245.773 102.42 238.425 80.1672 213.343 67.2394" stroke="#D0AB59" stroke-width="2" stroke-miterlimit="10"/>
<path d="M228.774 28.064C228.774 28.064 192.34 40.8447 177.852 73.3052" stroke="#D0AB59" stroke-width="2" stroke-miterlimit="10"/>
<path d="M150.873 101.587C150.873 101.587 137.193 94.5166 113.324 94.3083C113.324 94.3083 121.59 77.3 136.789 66.0142" stroke="#D0AB59" stroke-width="2" stroke-miterlimit="10"/>
<path d="M96.3496 106.905C96.3496 106.905 92.3204 100.668 81.3718 96.1462" stroke="#D0AB59" stroke-width="2" stroke-miterlimit="10"/>
<path d="M95.9824 72.0184C95.9824 72.0184 70.5213 89.4679 51.2449 88.5244" stroke="#D0AB59" stroke-width="2" stroke-miterlimit="10"/>
<path d="M200.043 24.2285C200.043 24.2285 202.897 35.9555 189.021 55.8312" stroke="#D0AB59" stroke-width="2" stroke-miterlimit="10"/>
<path d="M182.616 73.3052C182.616 73.3052 196.847 77.9984 201.856 86.4781C206.865 94.9577 189.609 103.989 177.093 74.7389" stroke="#D0AB59" stroke-width="2" stroke-linecap="round" stroke-linejoin="round"/>
<path d="M192.781 84.9341C192.781 84.9341 189.266 78.5621 179.8 73.4277" stroke="#D0AB59" stroke-width="2" stroke-linecap="round" stroke-linejoin="round"/>
<path d="M217.667 70.7196C217.667 70.7196 226.827 82.6304 226.239 92.4335C225.652 102.237 206.216 100.006 212.327 68.7958" stroke="#D0AB59" stroke-width="2" stroke-linecap="round" stroke-linejoin="round"/>
<path d="M219.553 86.0736C219.553 86.0736 220.238 78.8316 215.303 69.2614" stroke="#D0AB59" stroke-width="2" stroke-linecap="round" stroke-linejoin="round"/>
<path d="M115.92 94.5288C115.92 94.5288 129.906 100.019 134.388 108.756C138.871 117.493 121.162 125.556 110.311 95.6562" stroke="#D0AB59" stroke-width="2" stroke-linecap="round" stroke-linejoin="round"/>
<path d="M125.412 106.709C125.412 106.709 122.264 100.153 113.165 94.4553" stroke="#D0AB59" stroke-width="2" stroke-linecap="round" stroke-linejoin="round"/>
<path d="M57.1353 90.6932C57.1353 90.6932 68.4514 100.582 69.725 110.299C70.9987 120.017 51.612 121.646 51.4896 89.8354" stroke="#D0AB59" stroke-width="2" stroke-linecap="round" stroke-linejoin="round"/>
<path d="M61.9609 105.361C61.9609 105.361 61.2139 98.1313 54.5026 89.7129" stroke="#D0AB59" stroke-width="2" stroke-linecap="round" stroke-linejoin="round"/>
<path d="M220.116 66.2715C220.116 66.2715 233.587 59.7402 237.445 50.6846C241.303 41.629 223.018 34.9384 214.47 65.573" stroke="#D0AB59" stroke-width="2" stroke-linecap="round" stroke-linejoin="round"/>
<path d="M228.688 53.4048C228.688 53.4048 226.043 60.1812 217.336 66.5164" stroke="#D0AB59" stroke-width="2" stroke-linecap="round" stroke-linejoin="round"/>
<path d="M186.388 57.8897C186.388 57.8897 188.838 43.0626 183.596 34.73C178.354 26.3973 162.409 37.5238 182.555 62.1296" stroke="#D0AB59" stroke-width="2" stroke-linecap="round" stroke-linejoin="round"/>
<path d="M180.779 43.4548C180.779 43.4548 184.796 49.5082 184.968 60.2794" stroke="#D0AB59" stroke-width="2" stroke-linecap="round" stroke-linejoin="round"/>
<path d="M7.02143 73.7462C7.02143 73.7462 21.4971 84.2723 17.7986 106.231C17.7741 106.231 -3.25363 93.5975 7.02143 73.7462Z" stroke="#D0AB59" stroke-width="2" stroke-linecap="round" stroke-linejoin="round"/>
<path d="M10.5977 88.6592C10.5977 88.6592 10.1323 71.2097 -1.00006 58.0245" stroke="#D0AB59" stroke-width="2" stroke-linecap="round" stroke-linejoin="round"/>
<path d="M17.8604 57.2279C17.8604 57.2279 34.3201 64.2617 51.2451 49.8021C51.2451 49.8021 29.6173 38.2835 17.8604 57.2279Z" stroke="#D0AB59" stroke-width="2" stroke-linecap="round" stroke-linejoin="round"/>
<path d="M32.4946 52.6573C32.4946 52.6573 17.2841 61.235 0.212087 58.4779" stroke="#D0AB59" stroke-width="2" stroke-linecap="round" stroke-linejoin="round"/>
<path d="M26.8245 87.4707C26.8245 87.4707 41.3125 97.9845 37.6385 119.943C37.6385 119.943 16.574 107.31 26.8245 87.4707Z" stroke="#D0AB59" stroke-width="2" stroke-linecap="round" stroke-linejoin="round"/>
<path d="M30.4253 102.371C30.4253 102.371 29.9599 84.9217 18.8276 71.7366" stroke="#D0AB59" stroke-width="2" stroke-linecap="round" stroke-linejoin="round"/>
<path d="M37.6386 70.9524C37.6386 70.9524 54.0983 77.9738 71.0234 63.5143C71.0723 63.5143 49.4445 51.9589 37.6386 70.9524Z" stroke="#D0AB59" stroke-width="2" stroke-linecap="round" stroke-linejoin="round"/>
<path d="M52.335 66.3817C52.335 66.3817 37.1244 74.9594 20.0524 72.2023" stroke="#D0AB59" stroke-width="2" stroke-linecap="round" stroke-linejoin="round"/>
</svg>
