<svg xmlns="http://www.w3.org/2000/svg" viewBox="0 0 1280 102.05"><defs><style>.cls-1{fill:#d1c6a7;}.cls-2{fill:#ccb480;}</style></defs><g id="Layer_2" data-name="Layer 2"><g id="Layer_2-2" data-name="Layer 2"><path class="cls-1" d="M1280,34.57v58.9c-368.89,15.73-592.11,7.51-738-6-51.48-4.77-306.87-37-542-33.92V12.16C149.17,3.6,305.83-1.52,472.83.4,695.73,3,821.89,29.28,1079.54,32.1,1079.54,32.1,1082.51,33.27,1280,34.57Z"/><path class="cls-2" d="M1280,49.69V93.47c-368.89,15.73-592.11,7.51-738-6-51.48-4.77-306.87-37-542-33.92V29.06a1652.44,1652.44,0,0,1,285.77-8.78c182.65,10.25,225.79,67.54,391.77,70C796.26,92,815.2,67.18,980.36,52.05A1796,1796,0,0,1,1280,49.69Z"/></g></g></svg>