<svg width="306" height="89" viewBox="0 0 306 89" fill="none" xmlns="http://www.w3.org/2000/svg">
<path d="M19.9214 43.0033C19.9214 43.0033 74.091 7.21667 136.48 36.4433C198.868 65.67 258.94 68.629 306.231 33.9729" stroke="#CCB580" stroke-width="2" stroke-miterlimit="10" stroke-linecap="round"/>
<path d="M286.081 30.4836C286.081 30.4836 266.546 36.0665 249.382 17.3776C249.382 17.3776 275.462 7.35627 286.081 30.4836Z" stroke="#CCB580" stroke-width="2" stroke-linecap="round" stroke-linejoin="round"/>
<path d="M34.0711 35.4524C34.0711 35.4524 26.2987 54.3088 1 56.0674C1 56.0674 9.37243 29.4089 34.0711 35.4524Z" stroke="#CCB580" stroke-width="2" stroke-linecap="round" stroke-linejoin="round"/>
<path d="M270.188 23.2537C270.188 23.2537 286.165 35.0755 305.854 34.4195" stroke="#CCB580" stroke-width="2" stroke-linecap="round" stroke-linejoin="round"/>
<path d="M293.281 51.8244C293.281 51.8244 275.42 61.5945 276.537 87.0108C276.523 87.0108 302.072 75.6914 293.281 51.8244Z" stroke="#CCB580" stroke-width="2" stroke-linecap="round" stroke-linejoin="round"/>
<path d="M287.058 68.1684C287.058 68.1684 290.044 48.5025 304.487 35.1035" stroke="#CCB580" stroke-width="2" stroke-linecap="round" stroke-linejoin="round"/>
<path d="M261.341 54.7973C261.341 54.7973 246.996 51.629 241.345 43.8687C235.693 36.1084 251.559 25.6404 266.574 52.8572" stroke="#CCB580" stroke-width="2" stroke-linecap="round" stroke-linejoin="round"/>
<path d="M250.331 44.4827C250.331 44.4827 254.364 50.3309 264.076 54.3925" stroke="#CCB580" stroke-width="2" stroke-linecap="round" stroke-linejoin="round"/>
<path d="M246.452 58.3703C246.452 58.3703 234.172 66.4516 231.661 75.7193C229.149 84.987 247.694 89.1044 252.033 58.3145" stroke="#CCB580" stroke-width="2" stroke-linecap="round" stroke-linejoin="round"/>
<path d="M239.837 71.9369C239.837 71.9369 241.512 65.028 249.145 57.7702" stroke="#CCB580" stroke-width="2" stroke-linecap="round" stroke-linejoin="round"/>
<path d="M217.748 59.1799C217.748 59.1799 204.045 64.4976 199.608 73.0255C195.17 81.5535 212.474 89.4952 223.19 60.3104" stroke="#CCB580" stroke-width="2" stroke-linecap="round" stroke-linejoin="round"/>
<path d="M208.427 71.0576C208.427 71.0576 211.525 64.6791 220.497 59.0961" stroke="#CCB580" stroke-width="2" stroke-linecap="round" stroke-linejoin="round"/>
<path d="M187.538 55.6487C187.538 55.6487 173.835 60.9664 169.397 69.4944C164.96 78.0223 182.263 85.9501 192.98 56.7653" stroke="#CCB580" stroke-width="2" stroke-linecap="round" stroke-linejoin="round"/>
<path d="M178.216 67.4705C178.216 67.4705 181.314 61.0781 190.287 55.5928" stroke="#CCB580" stroke-width="2" stroke-linecap="round" stroke-linejoin="round"/>
<path d="M157.369 47.4836C157.369 47.4836 143.68 52.8014 139.229 61.3293C134.777 69.8573 152.122 77.785 162.867 48.6002" stroke="#CCB580" stroke-width="2" stroke-linecap="round" stroke-linejoin="round"/>
<path d="M148.048 59.3474C148.048 59.3474 151.146 52.9549 160.132 47.4557" stroke="#CCB580" stroke-width="2" stroke-linecap="round" stroke-linejoin="round"/>
<path d="M131.763 36.2898C131.763 36.2898 117.446 39.5558 111.837 47.3719C106.227 55.188 122.205 65.5165 136.954 38.188" stroke="#CCB580" stroke-width="2" stroke-linecap="round" stroke-linejoin="round"/>
<path d="M120.824 46.688C120.824 46.688 124.815 40.812 134.499 36.6667" stroke="#CCB580" stroke-width="2" stroke-linecap="round" stroke-linejoin="round"/>
<path d="M104.399 26.9942C104.399 26.9942 90.0826 30.3021 84.487 38.1601C78.8914 46.018 94.8409 56.3046 109.604 28.9761" stroke="#CCB580" stroke-width="2" stroke-linecap="round" stroke-linejoin="round"/>
<path d="M93.4595 37.4203C93.4595 37.4203 97.4503 31.5304 107.134 27.399" stroke="#CCB580" stroke-width="2" stroke-linecap="round" stroke-linejoin="round"/>
<path d="M74.2029 26.2964C74.2029 26.2964 61.6443 33.8752 58.7139 43.0452C55.7836 52.2152 74.2169 57.0026 79.7706 26.4779" stroke="#CCB580" stroke-width="2" stroke-linecap="round" stroke-linejoin="round"/>
<path d="M67.0444 39.5558C67.0444 39.5558 68.998 32.7307 76.9099 25.78" stroke="#CCB580" stroke-width="2" stroke-linecap="round" stroke-linejoin="round"/>
<path d="M49.7273 31.1815C49.7273 31.1815 38.8292 40.9516 37.7269 50.5542C36.6245 60.1569 55.616 61.3572 55.2392 30.2742" stroke="#CCB580" stroke-width="2" stroke-linecap="round" stroke-linejoin="round"/>
<path d="M45.2485 45.5854C45.2485 45.5854 45.8625 38.5091 52.2256 30.2324" stroke="#CCB580" stroke-width="2" stroke-linecap="round" stroke-linejoin="round"/>
<path d="M229.846 58.2587C229.846 58.2587 216.897 51.28 213.534 42.3194C210.171 33.3588 228.311 27.5386 235.428 57.7981" stroke="#CCB580" stroke-width="2" stroke-linecap="round" stroke-linejoin="round"/>
<path d="M222.032 45.3481C222.032 45.3481 224.335 52.1174 232.637 58.6076" stroke="#CCB580" stroke-width="2" stroke-linecap="round" stroke-linejoin="round"/>
<path d="M203.612 56.5977C203.612 56.5977 192.086 47.4696 190.384 38.0205C188.682 28.5714 207.52 26.087 209.166 57.1281" stroke="#CCB580" stroke-width="2" stroke-linecap="round" stroke-linejoin="round"/>
<path d="M198.199 42.5009C198.199 42.5009 199.273 49.4795 206.236 57.4213" stroke="#CCB580" stroke-width="2" stroke-linecap="round" stroke-linejoin="round"/>
<path d="M175.328 50.1495C175.328 50.1495 164.653 40.0583 163.774 30.4836C162.895 20.9088 181.914 20.0993 180.812 51.1683" stroke="#CCB580" stroke-width="2" stroke-linecap="round" stroke-linejoin="round"/>
<path d="M171.239 35.6339C171.239 35.6339 171.7 42.7242 177.937 51.1963" stroke="#CCB580" stroke-width="2" stroke-linecap="round" stroke-linejoin="round"/>
<path d="M146.122 40.2677C146.122 40.2677 137.4 28.39 138.224 18.885C139.047 9.38009 157.885 11.9064 151.368 42.2357" stroke="#CCB580" stroke-width="2" stroke-linecap="round" stroke-linejoin="round"/>
<path d="M144.601 25.2496C144.601 25.2496 143.806 32.312 148.467 41.7472" stroke="#CCB580" stroke-width="2" stroke-linecap="round" stroke-linejoin="round"/>
<path d="M119.428 29.1855C119.428 29.1855 110.679 17.3916 111.488 7.81685C112.298 -1.75788 131.164 0.838188 124.647 31.1675" stroke="#CCB580" stroke-width="2" stroke-linecap="round" stroke-linejoin="round"/>
<path d="M117.865 14.1814C117.865 14.1814 117.084 21.2438 121.744 30.679" stroke="#CCB580" stroke-width="2" stroke-linecap="round" stroke-linejoin="round"/>
<path d="M93.7808 24.6773C93.7808 24.6773 81.2221 17.0706 78.3336 7.9285C75.4451 -1.21355 93.8645 -6.02883 99.3624 24.5377" stroke="#CCB580" stroke-width="2" stroke-linecap="round" stroke-linejoin="round"/>
<path d="M86.6499 11.362C86.6499 11.362 88.6035 18.2011 96.4875 25.1658" stroke="#CCB580" stroke-width="2" stroke-linecap="round" stroke-linejoin="round"/>
<path d="M62.3978 25.5287C62.3978 25.5287 49.281 18.9409 45.6529 10.0221C42.0249 1.10341 60.0675 -5.10761 67.9794 24.9286" stroke="#CCB580" stroke-width="2" stroke-linecap="round" stroke-linejoin="round"/>
<path d="M54.2485 12.8276C54.2485 12.8276 56.7324 19.4852 65.1466 25.8079" stroke="#CCB580" stroke-width="2" stroke-linecap="round" stroke-linejoin="round"/>
<path d="M38.8577 32.1584C38.8577 32.1584 24.5408 28.8645 18.9453 20.9926C13.3497 13.1206 29.3131 2.84804 44.0625 30.1905" stroke="#CCB580" stroke-width="2" stroke-linecap="round" stroke-linejoin="round"/>
<path d="M27.9312 21.7602C27.9312 21.7602 31.922 27.6363 41.5922 31.7816" stroke="#CCB580" stroke-width="2" stroke-linecap="round" stroke-linejoin="round"/>
</svg>
